<?xml version="1.0" encoding="UTF-8" standalone="no"?>
<!-- Created with Inkscape (http://www.inkscape.org/) -->
<svg
   xmlns:xml="http://www.w3.org/XML/1998/namespace"
   xmlns:dc="http://purl.org/dc/elements/1.1/"
   xmlns:cc="http://web.resource.org/cc/"
   xmlns:rdf="http://www.w3.org/1999/02/22-rdf-syntax-ns#"
   xmlns:svg="http://www.w3.org/2000/svg"
   xmlns="http://www.w3.org/2000/svg"
   xmlns:xlink="http://www.w3.org/1999/xlink"
   xmlns:sodipodi="http://inkscape.sourceforge.net/DTD/sodipodi-0.dtd"
   xmlns:inkscape="http://www.inkscape.org/namespaces/inkscape"
   sodipodi:docname="diagram.svg"
   sodipodi:docbase="H:\Documents and Settings\Alessandro Vernet\My Documents\Orbeon\PresentationServer\src\examples\web\examples\translate"
   inkscape:version="0.40+cvs"
   sodipodi:version="0.32"
   id="svg2"
   height="297mm"
   width="210mm">
  <defs
     id="defs3">
    <marker
       inkscape:stockid="Arrow2Mend"
       orient="auto"
       refY="0.0"
       refX="0.0"
       id="Arrow2Mend"
       style="overflow:visible;">
      <path
         sodipodi:nodetypes="cccc"
         id="path3333"
         style="font-size:12.0;fill-rule:evenodd;stroke-width:0.62500000;stroke-linejoin:round;"
         d="M 8.7185878,4.0337352 L -2.2072895,0.016013256 L 8.7185884,-4.0017078 C 6.9730900,-1.6296469 6.9831476,1.6157441 8.7185878,4.0337352 z "
         transform="scale(0.6) rotate(180) translate(-5,0)" />
    </marker>
    <marker
       inkscape:stockid="Arrow1Mstart"
       orient="auto"
       refY="0.0"
       refX="0.0"
       id="Arrow1Mstart"
       style="overflow:visible">
      <path
         sodipodi:nodetypes="ccccc"
         id="path3341"
         d="M 0.0,0.0 L 5.0,-5.0 L -12.5,0.0 L 5.0,5.0 L 0.0,0.0 z "
         style="fill-rule:evenodd;stroke:#000000;stroke-width:1.0pt;marker-start:none"
         transform="scale(0.4)" />
    </marker>
    <marker
       inkscape:stockid="Arrow2Lend"
       orient="auto"
       refY="0.0"
       refX="0.0"
       id="Arrow2Lend"
       style="overflow:visible;">
      <path
         sodipodi:nodetypes="cccc"
         id="path3336"
         style="font-size:12.0;fill-rule:evenodd;stroke-width:0.62500000;stroke-linejoin:round;"
         d="M 8.7185878,4.0337352 L -2.2072895,0.016013256 L 8.7185884,-4.0017078 C 6.9730900,-1.6296469 6.9831476,1.6157441 8.7185878,4.0337352 z "
         transform="scale(1.1) rotate(180) translate(-5,0)" />
    </marker>
    <marker
       inkscape:stockid="Arrow2Lstart"
       orient="auto"
       refY="0.0"
       refX="0.0"
       id="Arrow2Lstart"
       style="overflow:visible">
      <path
         sodipodi:nodetypes="cccc"
         id="path3327"
         style="font-size:12.0;fill-rule:evenodd;stroke-width:0.62500000;stroke-linejoin:round"
         d="M 8.7185878,4.0337352 L -2.2072895,0.016013256 L 8.7185884,-4.0017078 C 6.9730900,-1.6296469 6.9831476,1.6157441 8.7185878,4.0337352 z "
         transform="scale(1.1) translate(-5,0)" />
    </marker>
    <linearGradient
       y2="-0.45783132"
       x2="0.92957747"
       y1="3.3012049"
       x1="-2.3960868e-17"
       id="linearGradient4284"
       xlink:href="#linearGradient893" />
    <linearGradient
       y2="-0.033519555"
       x2="0.99074072"
       y1="2.0837989"
       x1="-0.77314812"
       id="linearGradient4283"
       xlink:href="#linearGradient893" />
    <linearGradient
       gradientTransform="scale(0.997153,1.002855)"
       y2="1.8771822"
       x2="0.48453596"
       y1="-0.033741195"
       x1="0.47041038"
       id="linearGradient2740"
       xlink:href="#linearGradient902" />
    <linearGradient
       gradientTransform="scale(0.995847,1.004170)"
       y2="1.9025002"
       x2="0.48481107"
       y1="-0.043652620"
       x1="0.47042510"
       id="linearGradient1506"
       xlink:href="#linearGradient902" />
    <linearGradient
       gradientTransform="scale(0.997825,1.002180)"
       y2="1.8570156"
       x2="0.48548824"
       y1="-0.024853170"
       x1="0.47157744"
       id="linearGradient1505"
       xlink:href="#linearGradient902" />
    <linearGradient
       gradientUnits="userSpaceOnUse"
       gradientTransform="scale(1.369589,0.730146)"
       y2="182.99154"
       x2="88.996957"
       y1="169.09755"
       x1="88.755695"
       id="linearGradient1404"
       xlink:href="#linearGradient892" />
    <radialGradient
       fy="0.18269235"
       fx="0.50352114"
       r="0.34964636"
       cy="0.50000006"
       cx="0.50000000"
       id="radialGradient1316"
       xlink:href="#linearGradient1317" />
    <radialGradient
       fy="0.26666668"
       fx="0.47535211"
       r="0.41197181"
       cy="0.53333336"
       cx="0.47887325"
       id="radialGradient1315"
       xlink:href="#linearGradient1317" />
    <linearGradient
       gradientUnits="userSpaceOnUse"
       gradientTransform="scale(1.360178,0.735198)"
       y2="173.03153"
       x2="95.100155"
       y1="177.77768"
       x1="101.10657"
       id="linearGradient1171"
       xlink:href="#linearGradient902" />
    <linearGradient
       gradientTransform="scale(0.998371,1.001632)"
       y2="1.8378206"
       x2="0.48655096"
       y1="-0.016295359"
       x1="0.47284532"
       id="linearGradient1170"
       xlink:href="#linearGradient902" />
    <linearGradient
       gradientUnits="userSpaceOnUse"
       gradientTransform="scale(1.187069,0.842411)"
       y2="81.477602"
       x2="74.533693"
       y1="224.57898"
       x1="146.69923"
       id="linearGradient1169"
       xlink:href="#linearGradient893" />
    <linearGradient
       gradientUnits="userSpaceOnUse"
       gradientTransform="scale(1.183875,0.844684)"
       y2="133.54711"
       x2="88.447016"
       y1="228.39311"
       x1="141.60217"
       id="linearGradient1167"
       xlink:href="#linearGradient888" />
    <linearGradient
       gradientUnits="userSpaceOnUse"
       gradientTransform="scale(1.223869,0.817081)"
       y2="148.78619"
       x2="107.04918"
       y1="131.25248"
       x1="111.49758"
       id="linearGradient1166"
       xlink:href="#linearGradient1317" />
    <linearGradient
       gradientUnits="userSpaceOnUse"
       gradientTransform="scale(2.421707,0.412932)"
       y2="176.28694"
       x2="-16.224496"
       y1="269.85831"
       x1="51.460928"
       id="linearGradient1157"
       xlink:href="#linearGradient888" />
    <linearGradient
       gradientUnits="userSpaceOnUse"
       gradientTransform="scale(2.421707,0.412932)"
       y2="234.26866"
       x2="25.220815"
       y1="178.48862"
       x1="25.220815"
       id="linearGradient1156"
       xlink:href="#linearGradient888" />
    <linearGradient
       gradientUnits="userSpaceOnUse"
       gradientTransform="scale(1.328386,0.752793)"
       y2="105.42543"
       x2="8.3460580"
       y1="76.277559"
       x1="35.190362"
       id="linearGradient1150"
       xlink:href="#linearGradient892" />
    <linearGradient
       gradientUnits="userSpaceOnUse"
       gradientTransform="scale(1.329144,0.752364)"
       y2="23.299901"
       x2="79.135392"
       y1="55.707340"
       x1="52.280855"
       id="linearGradient1148"
       xlink:href="#linearGradient892" />
    <linearGradient
       gradientUnits="userSpaceOnUse"
       gradientTransform="scale(1.320739,0.757152)"
       y2="113.71949"
       x2="17.876529"
       y1="90.197025"
       x1="39.810948"
       id="linearGradient1146"
       xlink:href="#linearGradient892" />
    <linearGradient
       gradientUnits="userSpaceOnUse"
       gradientTransform="scale(2.105117,0.475033)"
       y2="251.21892"
       x2="31.617281"
       y1="203.49900"
       x1="31.449743"
       id="linearGradient1144"
       xlink:href="#linearGradient892" />
    <linearGradient
       x1="0.00000000"
       y1="3.3012049"
       x2="0.92957747"
       y2="-0.45783132"
       id="linearGradient1141"
       xlink:href="#linearGradient888" />
    <linearGradient
       gradientUnits="userSpaceOnUse"
       gradientTransform="scale(1.910215,0.523501)"
       y2="239.58067"
       x2="42.570802"
       y1="110.44470"
       x1="45.685757"
       id="linearGradient1140"
       xlink:href="#linearGradient888" />
    <linearGradient
       y2="0.52325583"
       x2="0.15294118"
       y1="1.9767442"
       x1="0.67450982"
       id="linearGradient1138"
       xlink:href="#linearGradient1806" />
    <radialGradient
       fy="0.82812500"
       fx="0.49222797"
       r="0.76960242"
       cy="0.82812500"
       cx="0.49222797"
       id="radialGradient1132"
       xlink:href="#linearGradient1133" />
    <linearGradient
       gradientUnits="userSpaceOnUse"
       gradientTransform="scale(1.096416,0.912063)"
       y2="11.699047"
       x2="95.644441"
       y1="208.43991"
       x1="-77.726178"
       id="linearGradient905"
       xlink:href="#linearGradient888" />
    <linearGradient
       gradientUnits="userSpaceOnUse"
       gradientTransform="scale(1.226753,0.815160)"
       y2="49.989117"
       x2="54.855817"
       y1="91.645182"
       x1="53.335076"
       id="linearGradient901"
       xlink:href="#linearGradient1133" />
    <linearGradient
       gradientUnits="userSpaceOnUse"
       gradientTransform="scale(1.226753,0.815160)"
       y2="91.076990"
       x2="27.674331"
       y1="-3.9104078"
       x1="92.437968"
       id="linearGradient891"
       xlink:href="#linearGradient888" />
    <linearGradient
       id="linearGradient888">
      <stop
         id="stop889"
         offset="0.0000000"
         style="stop-color:#565248;stop-opacity:1.0000000;" />
      <stop
         id="stop1861"
         offset="0.50000000"
         style="stop-color:#807d74;stop-opacity:1.0000000;" />
      <stop
         id="stop890"
         offset="1"
         style="stop-color:#fff;stop-opacity:1;" />
    </linearGradient>
    <linearGradient
       id="linearGradient892">
      <stop
         id="stop893"
         offset="0.00000000"
         style="stop-color:#ffffff;stop-opacity:0.00000000;" />
      <stop
         id="stop894"
         offset="1"
         style="stop-color:#fff;stop-opacity:1;" />
    </linearGradient>
    <linearGradient
       id="linearGradient902">
      <stop
         id="stop903"
         offset="0.00000000"
         style="stop-color:#000000;stop-opacity:0.00000000;" />
      <stop
         id="stop904"
         offset="1.0000000"
         style="stop-color:#000000;stop-opacity:0.22000000;" />
    </linearGradient>
    <linearGradient
       id="linearGradient1098">
      <stop
         id="stop1099"
         offset="0.00000000"
         style="stop-color:#ffffff;stop-opacity:1.0000000;" />
      <stop
         id="stop1101"
         offset="0.50000000"
         style="stop-color:#ffffff;stop-opacity:0.22314049;" />
      <stop
         id="stop1102"
         offset="0.59930235"
         style="stop-color:#ffffff;stop-opacity:0.00000000;" />
      <stop
         id="stop1100"
         offset="1.0000000"
         style="stop-color:#ffffff;stop-opacity:0.60330576;" />
    </linearGradient>
    <linearGradient
       id="linearGradient1133">
      <stop
         id="stop1134"
         offset="0.0000000"
         style="stop-color:#9db8d2;stop-opacity:1.0000000;" />
      <stop
         id="stop1136"
         offset="0.76209301"
         style="stop-color:#4b6983;stop-opacity:1.0000000;" />
      <stop
         id="stop1135"
         offset="1.0000000"
         style="stop-color:#314e6c;stop-opacity:1.0000000;" />
    </linearGradient>
    <linearGradient
       id="linearGradient1317">
      <stop
         id="stop1318"
         offset="0.00000000"
         style="stop-color:#000000;stop-opacity:0.52892560;" />
      <stop
         id="stop1320"
         offset="0.50000000"
         style="stop-color:#000000;stop-opacity:0.17355372;" />
      <stop
         id="stop1319"
         offset="1.0000000"
         style="stop-color:#000000;stop-opacity:0.00000000;" />
    </linearGradient>
    <linearGradient
       id="linearGradient893">
      <stop
         id="stop895"
         offset="0"
         style="stop-color:#000;stop-opacity:1;" />
      <stop
         id="stop896"
         offset="1"
         style="stop-color:#fff;stop-opacity:1;" />
    </linearGradient>
    <radialGradient
       fy="0.56148684"
       fx="0.51611376"
       r="0.46065515"
       cy="0.54545456"
       cx="0.50522649"
       id="radialGradient1977"
       xlink:href="#linearGradient1806" />
    <linearGradient
       id="linearGradient1806">
      <stop
         id="stop1807"
         offset="0.0000000"
         style="stop-color:#000000;stop-opacity:0.35051546;" />
      <stop
         id="stop3276"
         offset="0.64999998"
         style="stop-color:#000000;stop-opacity:0.13402061;" />
      <stop
         id="stop1808"
         offset="1.0000000"
         style="stop-color:#000000;stop-opacity:0.0000000;" />
    </linearGradient>
    <linearGradient
       gradientUnits="userSpaceOnUse"
       gradientTransform="scale(1.087146,0.919840)"
       y2="101.22760"
       x2="-298.71738"
       y1="289.79420"
       x1="-231.05229"
       id="linearGradient1520"
       xlink:href="#linearGradient1806"
       inkscape:collect="always" />
    <linearGradient
       y2="100.47380"
       x2="-294.68897"
       y1="277.34795"
       x1="-231.21958"
       gradientTransform="scale(1.090169,0.917289)"
       gradientUnits="userSpaceOnUse"
       id="linearGradient1598"
       xlink:href="#linearGradient1806"
       inkscape:collect="always" />
    <linearGradient
       y2="101.22760"
       x2="-298.71738"
       y1="289.79420"
       x1="-231.05229"
       gradientTransform="scale(1.087146,0.919840)"
       gradientUnits="userSpaceOnUse"
       id="linearGradient1600"
       xlink:href="#linearGradient1806"
       inkscape:collect="always" />
    <linearGradient
       y2="101.22760"
       x2="-298.71738"
       y1="289.79420"
       x1="-231.05229"
       gradientTransform="scale(1.087146,0.919840)"
       gradientUnits="userSpaceOnUse"
       id="linearGradient1602"
       xlink:href="#linearGradient1806"
       inkscape:collect="always" />
    <linearGradient
       y2="234.26866"
       x2="25.220815"
       y1="178.48862"
       x1="25.220815"
       gradientTransform="matrix(2.700726,0.000000,0.000000,0.460508,147.0660,386.8506)"
       gradientUnits="userSpaceOnUse"
       id="linearGradient1604"
       xlink:href="#linearGradient888"
       inkscape:collect="always" />
    <linearGradient
       y2="176.28694"
       x2="-16.224496"
       y1="269.85831"
       x1="51.460928"
       gradientTransform="matrix(2.700726,0.000000,0.000000,0.460508,147.0660,386.8506)"
       gradientUnits="userSpaceOnUse"
       id="linearGradient1606"
       xlink:href="#linearGradient888"
       inkscape:collect="always" />
    <linearGradient
       y2="81.477602"
       x2="74.533693"
       y1="224.57898"
       x1="146.69923"
       gradientTransform="matrix(1.323838,0.000000,0.000000,0.939470,147.0660,386.8506)"
       gradientUnits="userSpaceOnUse"
       id="linearGradient1608"
       xlink:href="#linearGradient893"
       inkscape:collect="always" />
    <linearGradient
       y2="239.58067"
       x2="42.570802"
       y1="110.44470"
       x1="45.685757"
       gradientTransform="matrix(2.130302,0.000000,0.000000,0.583817,147.0660,386.8506)"
       gradientUnits="userSpaceOnUse"
       id="linearGradient1610"
       xlink:href="#linearGradient888"
       inkscape:collect="always" />
    <linearGradient
       y2="11.699047"
       x2="95.644441"
       y1="208.43991"
       x1="-77.726178"
       gradientTransform="matrix(1.222741,0.000000,0.000000,1.017147,147.0660,386.8506)"
       gradientUnits="userSpaceOnUse"
       id="linearGradient1612"
       xlink:href="#linearGradient888"
       inkscape:collect="always" />
    <linearGradient
       y2="49.989117"
       x2="54.855817"
       y1="91.645182"
       x1="53.335076"
       gradientTransform="matrix(1.368095,0.000000,0.000000,0.909079,147.0660,386.8506)"
       gradientUnits="userSpaceOnUse"
       id="linearGradient1614"
       xlink:href="#linearGradient1133"
       inkscape:collect="always" />
    <linearGradient
       y2="91.076990"
       x2="27.674331"
       y1="-3.9104078"
       x1="92.437968"
       gradientTransform="matrix(1.368095,0.000000,0.000000,0.909079,147.0660,386.8506)"
       gradientUnits="userSpaceOnUse"
       id="linearGradient1616"
       xlink:href="#linearGradient888"
       inkscape:collect="always" />
    <linearGradient
       y2="113.71949"
       x2="17.876529"
       y1="90.197025"
       x1="39.810948"
       gradientTransform="matrix(1.472909,0.000000,0.000000,0.844388,147.0660,386.8506)"
       gradientUnits="userSpaceOnUse"
       id="linearGradient1618"
       xlink:href="#linearGradient892"
       inkscape:collect="always" />
    <linearGradient
       y2="23.299901"
       x2="79.135392"
       y1="55.707340"
       x1="52.280855"
       gradientTransform="scale(1.329144,0.752364)"
       gradientUnits="userSpaceOnUse"
       id="linearGradient1620"
       xlink:href="#linearGradient892"
       inkscape:collect="always" />
    <linearGradient
       y2="105.42543"
       x2="8.3460580"
       y1="76.277559"
       x1="35.190362"
       gradientTransform="scale(1.328386,0.752793)"
       gradientUnits="userSpaceOnUse"
       id="linearGradient1622"
       xlink:href="#linearGradient892"
       inkscape:collect="always" />
    <linearGradient
       y2="133.54711"
       x2="88.447016"
       y1="228.39311"
       x1="141.60217"
       gradientTransform="matrix(1.320276,0.000000,0.000000,0.942005,147.0660,386.8506)"
       gradientUnits="userSpaceOnUse"
       id="linearGradient1624"
       xlink:href="#linearGradient888"
       inkscape:collect="always" />
    <linearGradient
       y2="173.03153"
       x2="95.100155"
       y1="177.77768"
       x1="101.10657"
       gradientTransform="matrix(1.516892,0.000000,0.000000,0.819905,147.0660,386.8506)"
       gradientUnits="userSpaceOnUse"
       id="linearGradient1626"
       xlink:href="#linearGradient902"
       inkscape:collect="always" />
    <linearGradient
       y2="182.99154"
       x2="88.996957"
       y1="169.09755"
       x1="88.755695"
       gradientTransform="matrix(1.527388,0.000000,0.000000,0.814271,147.0660,386.8506)"
       gradientUnits="userSpaceOnUse"
       id="linearGradient1628"
       xlink:href="#linearGradient892"
       inkscape:collect="always" />
    <linearGradient
       y2="148.78619"
       x2="107.04918"
       y1="131.25248"
       x1="111.49758"
       gradientTransform="matrix(1.364878,0.000000,0.000000,0.911222,147.0660,386.8506)"
       gradientUnits="userSpaceOnUse"
       id="linearGradient1630"
       xlink:href="#linearGradient1317"
       inkscape:collect="always" />
    <linearGradient
       y2="251.21892"
       x2="31.617281"
       y1="203.49900"
       x1="31.449743"
       gradientTransform="matrix(2.347660,0.000000,0.000000,0.529764,147.0660,386.8506)"
       gradientUnits="userSpaceOnUse"
       id="linearGradient1632"
       xlink:href="#linearGradient892"
       inkscape:collect="always" />
  </defs>
  <sodipodi:namedview
     inkscape:window-y="58"
     inkscape:window-x="265"
     inkscape:window-height="852"
     inkscape:window-width="993"
     inkscape:current-layer="layer1"
     inkscape:document-units="px"
     inkscape:cy="639.99994"
     inkscape:cx="382.59145"
     inkscape:zoom="1.0000000"
     inkscape:pageshadow="2"
     inkscape:pageopacity="0.0"
     borderopacity="1.0"
     bordercolor="#666666"
     pagecolor="#ffffff"
     id="base" />
  <metadata
     id="metadata4">
    <rdf:RDF
       id="RDF5">
      <cc:Work
         id="Work6"
         rdf:about="">
        <dc:format
           id="format7">image/svg+xml</dc:format>
        <dc:type
           rdf:resource="http://purl.org/dc/dcmitype/StillImage"
           id="type9" />
      </cc:Work>
    </rdf:RDF>
  </metadata>
  <g
     id="layer1"
     inkscape:groupmode="layer"
     inkscape:label="Layer 1">
    <g
       transform="matrix(0.308075,0.000000,0.000000,0.308075,84.55467,161.5034)"
       id="g1577">
      <path
         id="rect1009"
         d="M 182.22329,411.80988 C 178.86416,411.80987 176.15930,414.51474 176.15930,417.87386 L 176.15930,472.79825 C 176.15930,476.15738 178.86416,478.86224 182.22329,478.86224 L 184.27946,478.86224 L 184.27946,483.46251 L 178.59883,483.46251 C 177.04869,483.46252 175.39274,484.60532 174.66073,485.97174 L 163.96162,505.94108 C 162.51275,508.64560 166.26040,513.43394 169.32860,513.43394 L 267.39792,513.43394 C 270.00537,513.43394 273.94621,510.04299 272.76489,507.71846 L 271.51027,505.20922 C 275.01442,504.09541 278.87783,500.03995 284.92772,503.04849 C 294.06386,507.46859 299.08326,509.18311 305.76832,503.85005 C 313.27167,500.55329 309.02102,506.05394 303.08483,513.15513 C 302.19413,512.65422 301.40516,512.06150 300.36649,511.76111 C 300.36649,511.76111 291.06083,509.79345 284.99742,513.53849 C 278.93402,517.28354 269.78094,524.23164 268.44343,526.01497 C 266.92757,527.97667 266.92938,532.05295 268.96619,533.50783 L 275.20443,537.96869 C 279.07906,540.73630 286.38691,542.13171 290.01589,539.04905 L 306.60473,524.93460 C 308.62324,523.21995 309.63113,518.71976 307.82450,517.09324 C 307.21258,516.15191 306.23233,515.13163 305.03646,514.20065 C 307.43832,512.03748 310.27249,508.77194 312.07626,504.26826 C 316.55968,493.38158 302.28310,506.52442 296.18443,504.37281 C 290.08576,502.22121 280.66679,495.95338 273.46190,501.20141 C 271.91353,502.32924 270.92465,502.72038 270.25566,502.76968 L 269.45410,501.23626 C 270.06653,499.50474 272.28956,496.89525 275.20443,496.00869 C 281.03413,493.98913 284.07894,490.58227 284.12616,487.36576 C 284.17337,484.39567 278.63678,481.40934 273.07855,478.72284 C 267.27388,476.03633 259.20004,474.47654 257.22156,474.85443 C 256.87438,474.73978 256.66161,474.87541 256.35030,474.85443 C 256.58347,474.20881 256.73365,473.52625 256.73365,472.79825 L 256.73365,417.87386 C 256.73365,414.51476 254.02879,411.80988 250.66967,411.80988 L 182.22329,411.80988 z M 259.97476,476.91061 C 267.34884,477.18840 281.13623,483.18743 281.37297,486.98241 C 281.55610,490.08500 271.98274,493.47901 267.50247,497.36786 L 261.71728,485.97174 C 260.86564,484.29591 258.92715,483.46251 257.04731,483.46251 L 248.50893,483.46251 L 248.50893,478.86224 L 250.66967,478.86224 C 252.21501,478.86224 253.60885,478.23909 254.67747,477.29397 C 255.27981,477.43512 256.04035,477.52315 257.29126,477.15456 C 258.02529,476.93828 258.92131,476.87093 259.97476,476.91061 z "
         style="fill:#ffffff;fill-rule:evenodd;stroke-width:1.4473482pt" />
      <g
         style="fill:url(#linearGradient1520);fill-opacity:1.0000000;stroke-width:0.50497097;stroke-opacity:0.76100630"
         transform="matrix(1.115216,0.000000,0.000000,0.964156,543.2913,400.8136)"
         id="g4293">
        <path
           id="path2720"
           d="M -270.85787,33.814995 C -289.35564,33.925992 -307.93321,33.592782 -326.38104,33.981747 C -331.43469,35.696391 -331.02221,41.899652 -330.68524,46.153320 C -330.75782,60.227303 -330.53537,74.298225 -330.21167,88.368260 C -328.21297,91.039611 -323.21766,90.618387 -322.68469,94.539015 C -320.78054,96.259426 -317.05071,94.882150 -314.43890,95.333237 C -298.54999,95.360274 -282.66107,95.387302 -266.77215,95.414339 C -266.35587,90.465192 -260.12609,88.824447 -255.81783,89.540255 C -256.01688,89.058389 -261.69557,87.939375 -259.61591,84.491525 C -259.45681,68.727270 -259.19734,52.882199 -259.82064,37.168229 C -261.19394,32.980583 -267.34179,33.833680 -270.85787,33.814995 z M -236.65184,97.260473 C -234.79025,100.12642 -237.08724,103.09386 -239.92892,104.16357 C -242.63110,105.91539 -245.59105,107.62992 -248.52894,108.76804 C -253.17730,108.19079 -251.42424,101.88475 -255.01281,99.896645 C -260.33594,96.447012 -267.21045,98.439430 -273.23329,97.939231 C -291.82490,97.948870 -310.41651,97.958519 -329.00813,97.968158 C -335.45898,103.56578 -339.16595,111.40269 -341.55034,119.32178 C -337.25147,124.20610 -329.89606,122.27575 -324.10438,122.40002 C -298.64553,122.23171 -273.11679,122.61546 -247.69897,122.24542 C -243.40174,121.14669 -247.44685,114.84894 -243.58488,113.04441 C -242.73865,112.73374 -247.81245,114.43820 -247.26205,111.62955 C -245.49117,106.66028 -239.14113,105.99595 -235.92338,102.36811 C -234.39131,99.755669 -236.26958,96.922488 -238.33047,95.260495 C -237.77093,95.927151 -237.21138,96.593817 -236.65184,97.260473 z M -240.64255,111.75263 C -243.64086,113.13223 -237.02792,110.69536 -235.55512,111.97369 C -229.71113,112.74417 -224.16461,117.19625 -218.12358,115.22951 C -225.97639,116.31604 -232.79900,109.03014 -240.64255,111.75263 z M -212.01083,112.33724 C -215.98173,113.85021 -208.21543,112.17765 -210.07883,115.87566 C -212.50961,119.93855 -206.99008,113.86620 -209.61436,112.54677 C -210.16198,111.94632 -211.27989,112.47663 -212.01083,112.33724 z M -213.97451,120.82946 C -220.13871,124.32615 -228.37873,119.08124 -233.85995,124.39439 C -238.36465,128.00055 -244.57099,130.35185 -247.04330,135.75122 C -247.65922,139.60202 -243.25109,141.90251 -240.44565,143.71808 C -235.60127,146.54512 -228.82270,145.75388 -225.20082,141.42836 C -220.62679,137.96117 -216.44182,134.08489 -212.48592,129.96782 C -212.82701,126.95048 -214.43694,123.63971 -213.97451,120.82946 z "
           style="fill:url(#linearGradient1598);font-family:helvetica" />
        <path
           id="path2723"
           d="M -269.68453,32.256957 C -288.76965,32.351184 -307.87514,32.249603 -326.94796,32.349264 C -332.63884,33.663474 -333.90446,40.291305 -333.21597,45.149113 C -333.11996,59.896901 -333.07471,74.659754 -332.61729,89.394810 C -331.88583,93.310348 -324.86009,92.098674 -325.11097,96.440890 C -328.07184,96.184706 -331.55340,96.317135 -333.07248,99.246492 C -338.92562,104.98392 -341.99312,112.66465 -344.27268,120.28679 C -340.22572,125.96631 -332.26467,125.31453 -326.02946,124.71751 C -300.16629,124.72770 -274.28316,124.82043 -248.43245,124.77905 C -244.42424,124.78686 -243.30672,120.35609 -243.96666,117.20990 C -242.88598,112.93536 -237.04086,113.94554 -233.80717,114.98513 C -228.01851,116.64297 -221.26418,120.43074 -215.57982,116.37592 C -211.36091,113.71809 -213.05678,118.40290 -215.77936,119.43344 C -220.82539,122.25797 -227.09125,118.98178 -232.39677,121.20855 C -236.53238,123.88957 -240.74707,126.85249 -244.76678,129.74666 C -248.34219,132.01467 -251.90947,137.38626 -248.13747,140.97315 C -243.79274,146.02948 -236.37425,149.45270 -229.68248,147.08651 C -225.09383,144.85973 -221.79206,140.75401 -217.61535,137.88661 C -215.10454,135.69469 -212.49235,133.26839 -210.83749,130.50207 C -210.86477,126.92195 -214.68529,121.91303 -210.25200,119.57013 C -207.25619,117.95208 -205.81053,112.12098 -209.75314,110.87946 C -214.16982,109.44692 -216.95156,115.09837 -221.43751,113.68608 C -228.47365,112.76758 -235.55650,107.20489 -242.69931,110.72434 C -246.89551,113.06547 -243.47174,109.43560 -241.45524,108.56544 C -237.85613,106.84628 -232.73147,104.36798 -233.94637,99.617708 C -234.27189,95.083838 -239.22223,93.197522 -242.95318,91.723135 C -247.61613,89.074942 -253.27003,89.345117 -258.06082,86.933298 C -257.89248,70.385101 -257.58805,53.764230 -258.26571,37.261116 C -259.20920,32.393288 -265.59824,31.960570 -269.68453,32.256957 z M -258.66259,91.764016 C -251.50590,92.239344 -243.21163,93.474137 -238.58238,99.271629 C -238.96251,103.06003 -244.00295,103.80224 -246.52821,106.14082 C -248.92267,108.48087 -251.12372,105.80503 -251.02958,103.27159 C -252.70852,98.336432 -258.20582,95.710815 -263.31841,96.533197 C -267.00561,96.725500 -263.71935,91.937514 -261.39500,92.380192 C -260.48382,92.178338 -259.57521,91.953759 -258.66259,91.764016 z "
           style="fill:url(#linearGradient1600);font-family:helvetica" />
        <path
           sodipodi:nodetypes="ccccczccccccccccccccccccczccccc"
           id="path2737"
           d="M -324.03980,30.708770 C -336.34920,30.820231 -335.15663,39.652507 -334.79476,45.313268 C -334.54690,60.436643 -334.38614,75.599009 -334.01234,90.698281 C -333.20516,93.057424 -330.71249,93.985661 -328.75475,95.252079 C -334.45530,96.476239 -336.96996,102.43195 -340.11175,106.59303 C -342.33294,111.36531 -347.84019,115.92868 -345.92111,121.43642 C -344.00204,126.94416 -332.21757,127.68181 -324.95408,127.12866 C -299.06901,127.09789 -273.17022,127.14905 -247.29372,127.06713 C -243.29961,126.16956 -240.99668,122.03601 -241.49770,118.23645 C -238.30082,114.95371 -233.32521,118.03039 -229.53292,118.63002 C -225.71641,119.31313 -232.56460,119.27527 -233.19362,120.54849 C -238.23604,122.95799 -242.61660,126.65447 -246.90973,130.10509 C -250.44674,132.97354 -252.42290,138.10741 -249.57412,142.08235 C -246.21315,145.92284 -241.41489,148.84284 -236.30395,149.79628 C -230.65487,150.83779 -225.57101,147.82678 -221.61570,144.24077 C -216.87391,140.59839 -212.08730,136.78287 -208.84361,131.80554 C -207.76302,128.26399 -211.47449,123.86671 -208.08348,121.09796 C -204.93438,118.46115 -204.06893,113.02076 -207.41836,110.26730 C -212.81988,106.81278 -218.36682,114.55112 -223.89705,111.29128 C -227.94209,110.16590 -231.91311,108.52596 -236.17676,108.45194 C -231.52711,105.88023 -229.62903,98.782331 -234.08944,95.153402 C -239.61551,89.404431 -248.45500,88.793917 -255.40182,85.744487 C -255.86992,78.940296 -255.53665,71.972758 -255.70928,65.098797 C -255.80747,55.730822 -255.73864,46.312632 -255.94025,36.975777 C -258.03631,31.236293 -265.34014,30.439522 -270.76286,30.729689 C -289.40725,30.770714 -311.88665,30.597309 -324.03980,30.708770 z M -255.46516,94.482857 C -250.34561,95.621060 -244.69322,96.216490 -240.83258,100.05203 C -242.37635,102.55028 -245.27573,103.64481 -247.80048,104.97505 C -249.71506,99.684643 -254.39847,94.970039 -260.51378,95.138259 C -260.66903,94.131274 -256.73261,94.551178 -255.46516,94.482857 z "
           style="fill:url(#linearGradient1602);font-family:helvetica" />
      </g>
      <rect
         y="474.57132"
         x="184.23181"
         height="9.2734299"
         width="64.200668"
         id="rect1155"
         style="fill:url(#linearGradient1604);fill-opacity:1.0000000;fill-rule:evenodd;stroke:url(#linearGradient1606);stroke-width:1.6141058pt" />
      <path
         sodipodi:nodetypes="czzczczzzzzzzc"
         id="path2676"
         d="M 257.16437,474.87217 C 253.21969,473.56944 251.34006,478.91792 257.21219,477.18765 C 263.08434,475.45739 281.03827,482.65485 281.30882,486.99197 C 281.57937,491.57552 260.26076,496.78988 266.10536,503.30621 C 271.55551,510.30667 275.71138,498.52686 284.84755,503.07017 C 293.98370,507.49028 299.02587,509.21649 305.71092,503.88343 C 313.34501,500.52925 308.82361,506.26412 302.72693,513.54417 C 296.63026,520.82422 307.65990,515.19140 312.02011,504.30473 C 316.50353,493.41805 302.22743,506.55234 296.12876,504.40073 C 290.03009,502.24913 280.59837,495.97425 273.39349,501.22228 C 266.18860,506.47031 269.32595,497.80679 275.15566,496.03367 C 280.98538,494.01412 284.02973,490.61668 284.07694,487.40017 C 284.12416,484.43010 278.57929,481.43408 273.02105,478.74758 C 267.21638,476.06108 259.14284,474.49427 257.16437,474.87217 z "
         style="fill:url(#linearGradient1608);fill-rule:evenodd;stroke-width:0.90459263;stroke-opacity:0.074380167" />
      <path
         sodipodi:nodetypes="czzzzzzzz"
         id="path1139"
         d="M 163.90881,505.96361 C 162.45994,508.66814 166.19067,513.45369 169.25886,513.45369 L 267.34323,513.45369 C 269.95069,513.45369 273.87460,510.07148 272.69329,507.74695 L 261.63649,485.99006 C 260.78484,484.31423 258.87961,483.49337 256.99977,483.49337 L 178.53229,483.49337 C 176.98215,483.49337 175.34093,484.62365 174.60892,485.99006 L 163.90881,505.96361 z "
         style="fill:url(#linearGradient1610);fill-opacity:1.0000000;fill-rule:evenodd;stroke-width:1.4473482pt" />
      <rect
         ry="19.681541"
         rx="19.681541"
         y="411.84674"
         x="176.07887"
         height="67.054031"
         width="80.607506"
         id="rect1137"
         style="fill:url(#linearGradient1612);fill-opacity:1.0000000;fill-rule:evenodd;stroke-width:1.6282668" />
      <rect
         y="422.19833"
         x="184.29868"
         height="42.427460"
         width="64.881233"
         id="rect1131"
         style="fill:url(#linearGradient1614);fill-opacity:1.0000000;fill-rule:evenodd;stroke:url(#linearGradient1616);stroke-width:1.6337307pt" />
      <path
         sodipodi:nodetypes="czzccccc"
         id="path1145"
         d="M 177.94681,445.78022 L 177.59014,470.21214 C 177.53328,474.10696 179.75321,476.60088 183.65354,476.63221 L 228.05900,476.98888 L 232.33904,467.00211 L 182.76186,466.64544 L 182.40519,445.60189 L 177.94681,445.78022 z "
         style="fill:url(#linearGradient1618);fill-opacity:1.0000000;fill-rule:evenodd;stroke-width:1.0000000pt" />
      <g
         transform="matrix(1.115216,0.000000,0.000000,1.115216,147.0660,386.8506)"
         id="g1791">
        <path
           sodipodi:nodetypes="czzccc"
           id="path1147"
           d="M 42.062098,33.460351 L 77.341205,33.008055 C 82.787126,32.938235 89.553204,38.416797 89.553204,43.863165 L 89.553204,60.145830 L 41.609801,59.693534 L 42.062098,33.460351 z "
           style="fill:url(#linearGradient1620);fill-opacity:1.0000000;fill-rule:evenodd;stroke-width:1.0000000pt" />
        <path
           sodipodi:nodetypes="czzccc"
           id="path1149"
           d="M 78.337784,67.629235 L 46.723745,67.724544 C 41.843589,67.739257 35.829319,62.771024 35.877168,57.891081 L 36.020221,43.301821 L 78.973514,44.128288 L 78.337784,67.629235 z "
           style="fill:url(#linearGradient1622);fill-opacity:1.0000000;fill-rule:evenodd;stroke-width:1.0000000pt" />
      </g>
      <path
         sodipodi:nodetypes="cczzzzzzc"
         id="path1159"
         d="M 300.28672,511.78090 C 300.28672,511.78090 291.01329,509.81920 284.94988,513.56424 C 278.88649,517.30928 269.70223,524.26438 268.36472,526.04771 C 266.84886,528.00941 266.86290,532.08290 268.89971,533.53778 L 275.14146,537.99617 C 279.01609,540.76377 286.31430,542.14884 289.94328,539.06619 L 306.52845,524.97770 C 308.54696,523.26304 309.58344,518.75747 307.77680,517.13095 C 306.49292,515.15592 303.74180,512.78011 300.28672,511.78090 z "
         style="fill:url(#linearGradient1624);fill-opacity:1.0000000;fill-rule:evenodd;stroke-width:0.72367412;stroke-opacity:0.34710744" />
      <path
         sodipodi:nodetypes="czzzzzc"
         id="path1160"
         d="M 305.81510,521.94600 L 287.48333,535.83981 C 284.20583,538.32385 279.39178,536.42086 276.74647,536.03448 C 274.10115,535.64808 271.84225,533.92418 272.10977,534.42946 C 272.37728,534.93475 275.40895,538.20422 278.35149,539.06619 C 281.29401,539.92813 286.41703,541.74637 289.26667,538.69318 C 292.11631,535.63999 309.02514,524.62103 305.81510,521.94600 z "
         style="fill:url(#linearGradient1626);fill-opacity:1.0000000;fill-rule:evenodd;stroke-width:1.0000000pt" />
      <path
         sodipodi:nodetypes="cczc"
         id="path1403"
         d="M 294.39969,529.06277 C 297.96640,523.89104 281.02455,513.01260 268.71944,528.52775 C 269.96778,532.62946 277.33061,534.72735 282.92500,534.43323 C 288.34561,534.14825 291.48688,531.79724 294.39969,529.06277 z "
         style="fill:url(#linearGradient1628);fill-opacity:1.0000000;fill-rule:evenodd;stroke-width:1.0000000pt" />
      <path
         sodipodi:nodetypes="cccccccc"
         id="path1519"
         d="M 301.67357,512.51655 C 298.73069,513.12371 294.62847,514.46565 291.90506,516.64348 C 290.67246,515.85891 286.83333,514.61833 284.98216,513.81230 L 284.51160,514.10251 C 291.67926,517.59268 299.22063,518.34850 298.60369,523.88464 C 299.11092,524.00628 299.91292,524.13037 299.55161,523.34036 C 299.20126,519.45415 294.83867,517.59129 293.18937,517.12491 C 295.58181,514.28189 299.01976,513.66061 301.67357,512.51655 z "
         style="fill:url(#linearGradient1630);fill-opacity:1.0000000;fill-rule:evenodd;stroke-width:1.0855112" />
      <path
         sodipodi:nodetypes="czzzzzzzz"
         id="path1143"
         d="M 168.13423,505.60342 C 167.11586,507.64649 168.44906,511.26158 171.89464,511.26158 L 264.18543,511.26158 C 266.01815,511.26158 268.77616,508.70659 267.94585,506.95061 L 260.17432,490.51503 C 259.57570,489.24907 258.23657,488.62898 256.91529,488.62898 L 178.41270,488.62897 C 177.32314,488.62897 176.16957,489.48281 175.65506,490.51503 L 168.13423,505.60342 z "
         style="fill:url(#linearGradient1632);fill-opacity:1.0000000;fill-rule:evenodd;stroke-width:1.0000000pt" />
    </g>
    <image
       y="291.31320"
       x="266.59296"
       id="image1649"
       height="35.285713"
       width="30.466408"
       sodipodi:absref="H:\Documents and Settings\Alessandro Vernet\Desktop\orbeon-large.png"
       xlink:href="H:\Documents and Settings\Alessandro Vernet\Desktop\orbeon-large.png" />
    <text
       sodipodi:linespacing="100%"
       id="text1656"
       y="353.18787"
       x="128"
       style="font-size:14.000000;font-style:normal;font-variant:normal;font-weight:normal;font-stretch:normal;fill:#000000;fill-opacity:1.0000000;stroke:none;stroke-width:1.0000000px;stroke-linecap:butt;stroke-linejoin:miter;stroke-opacity:1.0000000;font-family:Futura Lt BT;text-anchor:start;writing-mode:lr-tb"
       xml:space="preserve"><tspan
         y="353.18787"
         x="128.00000"
         id="tspan1658"
         sodipodi:role="line">JavaScript</tspan></text>
    <text
       id="text1660"
       y="277.57214"
       x="133.53369"
       style="font-size:14.000000;font-style:normal;font-variant:normal;font-weight:normal;font-stretch:normal;fill:#000000;fill-opacity:1.0000000;stroke:none;stroke-width:1.0000000px;stroke-linecap:butt;stroke-linejoin:miter;stroke-opacity:1.0000000;font-family:Futura Lt BT;text-anchor:start;writing-mode:lr-tb"
       xml:space="preserve"><tspan
         y="277.57214"
         x="133.53369"
         id="tspan1662"
         sodipodi:role="line">Browser</tspan></text>
    <text
       id="text1664"
       y="277.69177"
       x="228"
       style="font-size:14.000000;font-style:normal;font-variant:normal;font-weight:normal;font-stretch:normal;fill:#000000;fill-opacity:1.0000000;stroke:none;stroke-width:1.0000000px;stroke-linecap:butt;stroke-linejoin:miter;stroke-opacity:1.0000000;font-family:Futura Lt BT;text-anchor:start;writing-mode:lr-tb"
       xml:space="preserve"><tspan
         y="277.69177"
         x="228.00000"
         id="tspan1666"
         sodipodi:role="line">PresentationServer</tspan></text>
    <image
       y="289.95605"
       x="381.35840"
       id="image1683"
       height="38.000000"
       width="95.345451"
       sodipodi:absref="H:\Documents and Settings\Alessandro Vernet\Desktop\logo.gif"
       xlink:href="H:\Documents and Settings\Alessandro Vernet\Desktop\logo.gif" />
    <text
       id="text1690"
       y="353.36218"
       x="258.8916"
       style="font-size:14.000000;font-style:normal;font-variant:normal;font-weight:normal;font-stretch:normal;fill:#000000;fill-opacity:1.0000000;stroke:none;stroke-width:1.0000000px;stroke-linecap:butt;stroke-linejoin:miter;stroke-opacity:1.0000000;font-family:Futura Lt BT;text-anchor:start;writing-mode:lr-tb"
       xml:space="preserve"><tspan
         y="353.36218"
         x="258.89160"
         id="tspan1692"
         sodipodi:role="line">Pipeline</tspan></text>
    <text
       id="text1694"
       y="276.5365"
       x="406.51013"
       style="font-size:14.000000;font-style:normal;font-variant:normal;font-weight:normal;font-stretch:normal;fill:#000000;fill-opacity:1.0000000;stroke:none;stroke-width:1.0000000px;stroke-linecap:butt;stroke-linejoin:miter;stroke-opacity:1.0000000;font-family:Futura Lt BT;text-anchor:start;writing-mode:lr-tb"
       xml:space="preserve"><tspan
         y="276.53650"
         x="406.51013"
         id="tspan1696"
         sodipodi:role="line">Google</tspan></text>
    <text
       sodipodi:linespacing="100%"
       id="text1698"
       y="346.36218"
       x="428.70984"
       style="font-size:14.000000;font-style:normal;font-variant:normal;font-weight:normal;font-stretch:normal;fill:#000000;fill-opacity:1.0000000;stroke:none;stroke-width:1.0000000px;stroke-linecap:butt;stroke-linejoin:miter;stroke-opacity:1.0000000;font-family:Futura Lt BT;text-anchor:middle;writing-mode:lr-tb"
       xml:space="preserve"><tspan
         y="346.36218"
         x="428.70984"
         id="tspan1700"
         sodipodi:role="line">Language Tools</tspan><tspan
         y="360.36218"
         x="428.70984"
         id="tspan1702"
         sodipodi:role="line">HTML pages</tspan></text>
    <text
       id="text5684"
       y="408.36218"
       x="224"
       style="font-size:14.000000;font-style:normal;font-variant:normal;font-weight:normal;font-stretch:normal;fill:#000000;fill-opacity:1.0000000;stroke:none;stroke-width:1.0000000px;stroke-linecap:butt;stroke-linejoin:miter;stroke-opacity:1.0000000;font-family:Futura Lt BT;text-anchor:middle;writing-mode:lr-tb"
       xml:space="preserve"><tspan
         y="408.36218"
         x="224.00000"
         id="tspan5686"
         sodipodi:role="line">HTTP POST of XML</tspan><tspan
         y="422.36218"
         x="224.00000"
         id="tspan5698"
         sodipodi:role="line">document, </tspan><tspan
         y="436.36218"
         x="224.00000"
         id="tspan5702"
         sodipodi:role="line">XML returned</tspan><tspan
         y="450.36218"
         x="224.00000"
         id="tspan5700"
         sodipodi:role="line"></tspan></text>
    <text
       id="text5690"
       y="408.36218"
       x="346"
       style="font-size:14.000000;font-style:normal;font-variant:normal;font-weight:normal;font-stretch:normal;fill:#000000;fill-opacity:1.0000000;stroke:none;stroke-width:1.0000000px;stroke-linecap:butt;stroke-linejoin:miter;stroke-opacity:1.0000000;font-family:Futura Lt BT;text-anchor:middle;writing-mode:lr-tb"
       xml:space="preserve"><tspan
         y="408.36218"
         x="346.00000"
         id="tspan5692"
         sodipodi:role="line">HTTP GET with</tspan><tspan
         y="422.36218"
         x="346.00000"
         id="tspan5694"
         sodipodi:role="line">server returning</tspan><tspan
         y="436.36218"
         x="346.00000"
         id="tspan5696"
         sodipodi:role="line">HTML</tspan></text>
    <path
       sodipodi:nodetypes="cc"
       id="path5715"
       d="M 169.00000,362.36218 C 169.00000,362.36218 220.00000,401.36218 262.00000,362.36218"
       style="fill:none;fill-opacity:0.75000000;fill-rule:evenodd;stroke:#000000;stroke-width:1.0000000;stroke-linecap:butt;stroke-linejoin:miter;stroke-miterlimit:4.0000000;stroke-opacity:1.0000000;marker-start:url(#Arrow1Mstart);marker-end:url(#Arrow2Mend)" />
    <path
       sodipodi:nodetypes="cc"
       id="path5717"
       d="M 299.00000,362.36218 C 299.00000,362.36218 350.00000,408.36218 392.00000,369.36218"
       style="fill:none;fill-opacity:0.75000000;fill-rule:evenodd;stroke:#000000;stroke-width:1.0000000;stroke-linecap:butt;stroke-linejoin:miter;stroke-miterlimit:4.0000000;stroke-opacity:1.0000000;marker-start:url(#Arrow1Mstart);marker-end:url(#Arrow2Mend)" />
  </g>
</svg>
