<?xml version="1.0" standalone="no"?>
<!DOCTYPE svg PUBLIC "-//W3C//DTD SVG 20010904//EN"
 "http://www.w3.org/TR/2001/REC-SVG-20010904/DTD/svg10.dtd">
<svg version="1.0" xmlns="http://www.w3.org/2000/svg"
 width="544.000000pt" height="544.000000pt" viewBox="0 0 544.000000 544.000000"
 preserveAspectRatio="xMidYMid meet">

<g transform="translate(0.000000,544.000000) scale(0.100000,-0.100000)"
fill="#000000" stroke="none">
<path d="M2448 5330 c-219 -25 -421 -72 -598 -139 -188 -71 -243 -95 -360
-157 -257 -136 -444 -275 -650 -483 -337 -341 -586 -798 -684 -1253 -50 -234
-66 -372 -66 -581 0 -205 8 -286 51 -502 36 -186 82 -333 159 -514 123 -290
257 -495 482 -741 302 -330 686 -579 1108 -717 217 -72 323 -96 520 -119 199
-23 581 -15 755 15 427 74 861 262 1190 515 75 57 280 248 343 320 299 335
488 693 607 1151 85 327 97 685 35 1055 -67 393 -243 796 -492 1123 -82 108
-298 328 -420 429 -357 295 -818 501 -1308 584 -111 19 -549 28 -672 14z m700
-109 c379 -59 804 -243 1141 -493 113 -85 368 -337 462 -458 210 -269 373
-595 453 -900 48 -186 64 -287 77 -487 21 -342 -36 -742 -147 -1024 -204 -523
-567 -973 -1009 -1254 -171 -109 -348 -192 -570 -268 -305 -104 -457 -127
-835 -127 -367 0 -453 13 -783 114 -247 76 -521 217 -757 390 -169 124 -418
384 -537 561 -145 216 -269 459 -329 645 -109 337 -154 702 -125 1020 29 321
158 746 300 990 67 115 142 233 174 275 300 387 657 669 1052 833 290 120 516
183 740 206 22 2 157 3 300 1 203 -2 289 -7 393 -24z"/>
<path d="M2525 5063 c-22 -2 -96 -12 -165 -23 -508 -82 -964 -319 -1320 -686
-180 -186 -273 -310 -394 -527 -87 -157 -128 -251 -180 -420 -107 -343 -133
-708 -76 -1062 20 -124 73 -327 107 -404 8 -20 30 -73 48 -117 108 -263 319
-575 512 -754 122 -114 206 -185 273 -231 110 -76 292 -186 350 -212 267 -122
318 -140 515 -186 360 -84 755 -82 1090 4 204 53 475 159 617 242 411 239 680
510 903 909 104 187 221 507 255 696 116 657 -25 1292 -405 1813 -85 118 -360
386 -496 484 -359 260 -779 428 -1181 471 -90 9 -359 11 -453 3z m410 -93
c126 -12 296 -42 405 -72 96 -26 324 -115 420 -163 77 -39 271 -153 280 -165
3 -3 27 -22 55 -40 61 -42 175 -142 280 -246 262 -261 472 -630 565 -995 82
-320 91 -715 24 -1017 -130 -582 -484 -1102 -969 -1423 -265 -176 -653 -319
-972 -359 -323 -40 -719 -1 -1003 101 -19 7 -66 23 -105 37 -175 62 -460 228
-635 369 -134 109 -318 307 -415 448 -243 354 -375 730 -410 1170 -8 98 9 379
30 501 22 125 124 423 196 573 140 291 395 605 653 804 238 184 549 339 826
411 244 65 528 89 775 66z"/>
<path d="M2221 3946 l-76 -74 -33 29 -33 30 -231 -3 -230 -3 -30 -34 -31 -35
6 -259 c6 -280 10 -297 63 -317 36 -14 457 -13 487 1 51 23 57 50 57 266 l0
198 95 109 c52 60 95 115 95 122 0 13 -37 44 -53 44 -5 0 -44 -33 -86 -74z
m-173 -129 c6 -5 12 -18 12 -29 0 -21 -166 -198 -186 -198 -7 0 -15 9 -19 20
-9 28 -63 70 -91 70 -14 0 -30 -10 -39 -24 -21 -31 -13 -46 67 -131 66 -69 86
-77 136 -51 29 15 98 85 126 126 15 23 16 19 16 -103 l0 -127 -200 0 -200 0 0
230 0 230 168 2 c171 3 188 2 210 -15z"/>
<path d="M2534 3596 c-3 -13 -1 -33 5 -43 9 -18 26 -20 198 -26 103 -4 400 -7
658 -7 410 0 473 2 493 16 27 19 29 60 3 74 -13 6 -246 10 -685 10 l-666 0 -6
-24z"/>
<path d="M2209 3031 l-62 -60 -42 25 c-41 23 -47 24 -251 24 -178 0 -213 -2
-233 -16 -46 -32 -51 -66 -51 -323 0 -258 4 -282 49 -300 14 -5 128 -11 253
-13 l228 -3 32 33 33 32 3 202 3 201 37 46 c20 25 61 74 90 109 56 67 58 72
40 90 -27 27 -65 13 -129 -47z m-175 -122 c14 -11 26 -28 26 -37 -1 -9 -41
-60 -89 -112 l-89 -94 -31 50 c-43 71 -92 92 -126 54 -24 -27 -9 -61 60 -136
30 -32 57 -64 59 -71 3 -7 17 -16 33 -19 24 -7 35 1 110 80 l83 87 0 -123 0
-124 -192 4 c-106 2 -199 5 -205 7 -10 3 -13 58 -13 230 l0 225 174 0 c160 0
175 -2 200 -21z"/>
<path d="M2545 2697 c-14 -11 -16 -21 -11 -43 4 -16 13 -32 19 -36 7 -4 310
-8 674 -8 588 0 663 2 677 16 22 21 20 37 -7 62 l-23 22 -655 0 c-533 0 -659
-3 -674 -13z"/>
<path d="M2290 2174 c-14 -10 -49 -40 -78 -68 -39 -37 -56 -48 -66 -41 -71 52
-57 50 -281 53 -185 2 -214 0 -245 -15 -59 -30 -61 -40 -58 -326 l3 -259 33
-29 32 -29 231 0 c245 0 275 5 300 51 6 13 11 95 13 213 l2 192 76 90 c41 49
85 98 97 108 26 24 27 52 2 66 -26 13 -32 13 -61 -6z m-249 -164 c34 -19 24
-61 -30 -121 -26 -29 -51 -64 -55 -77 -4 -13 -24 -31 -43 -40 -35 -17 -36 -16
-52 7 -33 48 -73 81 -100 81 -29 0 -51 -16 -51 -38 0 -17 135 -178 157 -186
36 -14 71 9 155 101 31 33 58 60 60 58 2 -2 2 -55 0 -119 l-3 -116 -207 2
-207 3 -5 222 c-5 216 -4 222 15 226 46 9 347 6 366 -3z"/>
<path d="M2542 1778 c-13 -13 -16 -47 -6 -72 6 -14 74 -16 674 -16 658 0 667
0 685 20 15 16 17 26 9 48 l-9 27 -671 3 c-513 2 -673 -1 -682 -10z"/>
</g>
</svg>
