<?xml version="1.0" standalone="no"?>
<!DOCTYPE svg PUBLIC "-//W3C//DTD SVG 20010904//EN"
 "http://www.w3.org/TR/2001/REC-SVG-20010904/DTD/svg10.dtd">
<svg version="1.0" xmlns="http://www.w3.org/2000/svg"
 width="575.000000pt" height="575.000000pt" viewBox="0 0 575.000000 575.000000"
 preserveAspectRatio="xMidYMid meet">

<g transform="translate(0.000000,575.000000) scale(0.100000,-0.100000)"
fill="#000000" stroke="none">
<path d="M2645 5654 c-266 -27 -387 -48 -573 -100 -215 -60 -431 -154 -637
-278 -149 -89 -151 -91 -135 -113 27 -36 74 -83 82 -83 5 0 52 26 106 59 310
187 599 293 967 353 110 18 172 22 405 22 240 0 291 -3 404 -22 566 -98 1054
-339 1440 -712 243 -235 405 -456 547 -746 309 -633 335 -1419 67 -2104 -36
-93 -130 -290 -137 -290 -10 1 -182 126 -212 154 -15 14 -29 26 -31 26 -3 0
-35 -51 -71 -113 -37 -61 -94 -148 -127 -192 l-59 -80 47 -51 c26 -29 50 -52
53 -53 4 -1 49 60 100 134 52 74 98 135 103 135 12 0 149 -103 203 -153 l41
-38 26 43 c46 78 173 351 209 448 52 141 104 326 137 490 117 580 34 1197
-235 1745 -209 427 -556 810 -985 1088 -313 202 -737 355 -1147 413 -103 14
-503 27 -588 18z"/>
<path d="M2685 5324 c-254 -26 -381 -48 -535 -95 -253 -78 -454 -175 -690
-333 -41 -27 -79 -54 -85 -58 -199 -158 -304 -259 -408 -390 -33 -43 -63 -78
-66 -78 -3 0 -58 47 -121 105 -63 57 -120 105 -127 105 -6 0 -28 -24 -49 -52
-21 -29 -41 -55 -44 -58 -8 -6 -97 -143 -127 -195 -29 -49 -142 -276 -165
-330 -50 -117 -109 -312 -142 -465 -45 -214 -51 -281 -51 -590 0 -308 7 -379
56 -603 64 -292 242 -707 411 -961 40 -60 78 -116 83 -124 6 -8 17 -23 25 -32
8 -9 48 -56 89 -104 110 -129 274 -282 431 -400 76 -58 142 -106 145 -106 3 0
32 -17 63 -39 131 -89 387 -209 589 -277 438 -146 917 -181 1373 -99 201 36
250 48 416 104 199 66 440 177 560 257 16 10 51 30 77 44 26 14 62 39 79 57
l31 32 -29 38 c-31 42 -176 212 -240 281 l-41 45 -89 -59 c-109 -73 -375 -208
-452 -230 -31 -9 -61 -20 -67 -24 -13 -10 -229 -65 -332 -84 -282 -53 -657
-38 -963 38 -609 151 -1164 587 -1458 1146 -99 189 -190 429 -217 573 l-7 37
2166 0 2166 0 4 23 c3 12 7 45 10 72 3 28 12 106 20 175 8 69 12 138 9 154 -9
46 -83 107 -266 222 -282 176 -301 181 -1037 230 l-255 17 -95 50 c-52 28
-202 111 -334 184 -276 155 -329 173 -505 173 -204 0 -312 -28 -871 -226
l-305 -108 -225 -6 -224 -5 -37 -225 c-20 -124 -34 -228 -32 -232 5 -9 398
-11 430 -2 17 5 25 19 36 67 7 34 10 66 6 71 -4 5 -76 7 -159 4 l-151 -4 6 35
c3 20 10 59 16 88 l10 52 182 3 182 4 108 46 c59 26 243 92 410 147 351 116
533 156 675 149 77 -4 91 -8 195 -61 102 -52 355 -192 367 -203 2 -3 -158 -4
-356 -2 l-360 3 -105 53 c-57 29 -114 52 -126 52 -51 0 -71 -74 -33 -122 10
-14 50 -41 87 -61 124 -65 144 -67 599 -67 387 -1 788 -11 969 -26 l82 -6 -30
-32 c-16 -17 -43 -60 -61 -96 -29 -60 -31 -72 -31 -170 1 -117 16 -167 74
-232 17 -20 31 -38 31 -42 0 -3 -421 -6 -936 -6 l-936 0 31 30 c107 107 120
319 29 462 -37 58 -127 121 -198 138 -86 21 -197 9 -273 -28 -114 -57 -188
-182 -188 -322 -1 -109 24 -180 85 -248 l34 -37 -516 3 c-307 1 -519 -1 -525
-7 -5 -5 -3 -50 8 -116 97 -620 512 -1236 1076 -1597 287 -184 626 -311 959
-358 217 -31 533 -29 755 5 109 17 351 78 402 101 17 7 35 14 40 14 10 0 112
40 180 71 23 10 46 19 52 19 5 0 16 6 23 13 7 7 45 31 83 52 39 21 83 47 98
58 l29 19 33 -32 c18 -18 47 -52 64 -75 l31 -44 -27 -19 c-16 -10 -55 -34 -88
-51 -33 -18 -78 -43 -100 -56 -22 -13 -92 -44 -155 -70 -63 -26 -133 -55 -155
-65 -100 -45 -344 -108 -535 -137 -163 -25 -568 -25 -730 0 -435 68 -786 203
-1139 439 -150 100 -237 173 -387 322 -168 169 -269 298 -386 496 -180 305
-294 627 -350 985 -30 187 -32 562 -5 730 56 347 121 562 248 817 73 147 173
312 191 316 7 1 66 -51 130 -116 l117 -118 94 126 c214 284 473 508 768 664
367 194 817 288 1226 257 848 -64 1558 -538 1924 -1286 38 -77 80 -174 95
-217 14 -43 31 -78 38 -78 14 0 117 29 129 37 4 3 4 10 -1 16 -5 7 -21 48 -36
92 -75 214 -246 510 -406 700 -87 103 -264 277 -360 352 -338 265 -763 445
-1204 508 -100 15 -423 27 -501 19z m1759 -2285 c61 -26 340 -194 371 -222
l24 -22 -15 -115 c-8 -63 -17 -121 -19 -127 -3 -10 -57 -13 -225 -13 l-220 0
36 50 c97 135 108 302 29 420 -19 28 -32 50 -31 50 2 0 25 -9 50 -21z m-286 0
c59 -12 124 -63 152 -120 46 -89 9 -223 -78 -284 -58 -40 -158 -48 -219 -17
-88 45 -141 140 -129 229 11 84 80 175 144 189 15 3 32 7 37 9 19 6 44 5 93
-6z m-2357 -11 c50 -14 114 -69 139 -119 60 -116 -19 -271 -157 -308 -86 -23
-182 23 -233 112 -98 171 62 372 251 315z"/>
</g>
</svg>
